# xmcd CD Database Entry
#
# Track frame offsets:
# 150
# 19187
# 41284
# 62121
# 81426
# 101023
# 127150
# 148862
# 172404
# 193292
# 217822
# 240097
#
# Disc length: 3501 seconds
#
# Revision: 2
# Processed by: cddbd v1.4PL0 Copyright (c) Steve Scherf et al.
# Submitted via: tcd 2.0b
#
DISCID=b00dab0c
DTITLE=sowelu - Geofu
DYEAR=1900
DGENRE=
TTITLE0=shine
TTITLE1=Fortune
TTITLE2=Rainbow
TTITLE3=across my heart
TTITLE4=I Wanna Know
TTITLE5=beautiful dreamer
TTITLE6=Part of me
TTITLE7=CC
TTITLE8=Can't take my eyes off of you
TTITLE9=call my name
TTITLE10=my dear
TTITLE11=breath
EXTD=
EXTT0=
EXTT1=
EXTT2=
EXTT3=
EXTT4=
EXTT5=
EXTT6=
EXTT7=
EXTT8=
EXTT9=
EXTT10=
EXTT11=
PLAYORDER=
